# xmcd CD database file
#
# Track frame offsets:
#       150
#       14011
#       30265
#       43046
#       59303
#       71731
#       88696
#       104108
#       123768
#       139818
#       153240
#       170636
#
# Disc length: 2482 seconds
#
# Revision: 0
# Processed by: cddbd v1.5.2PL0 Copyright (c) Steve Scherf et al.
# Submitted via: jack 3.1.1
#
DISCID=a309b00c
DTITLE=Shelly Raskin - Hard to Say No
DYEAR=2009
DGENRE=Country
TTITLE0=Born in a Barn
TTITLE1=Be True to You
TTITLE2=Hard to Say No
TTITLE3=Taken
TTITLE4=One Way Ticket
TTITLE5=Easy to Love
TTITLE6=Country Mile
TTITLE7=Saw in Me
TTITLE8=Confused
TTITLE9=4 in the Morning
TTITLE10=High Class Trailer Trash
TTITLE11=You'll be Alright
EXTD=
EXTT0=
EXTT1=
EXTT2=
EXTT3=
EXTT4=
EXTT5=
EXTT6=
EXTT7=
EXTT8=
EXTT9=
EXTT10=
EXTT11=
PLAYORDER=
